<svg width="800" height="800" viewBox="0 0 800 800" fill="none" xmlns="http://www.w3.org/2000/svg">
<g clip-path="url(#clip0_3_2)">
<path d="M591.5 1.08238e-05C582.688 0.250011 575.812 7.68752 576 16.5C576.188 25.25 583.312 32 592 32H592.5C594.562 31.75 650.75 31.75 708.5 91C766.625 150.563 768 207.5 768 208C768 216.813 775.125 224 784 224C792.875 224 800 216.813 800 208C800 205.188 799.25 138.5 731.5 69C663.312 -0.874992 594.625 -0.18749 591.5 1.08238e-05ZM592 96C583.25 96 576.125 103.25 576 112C575.875 120.75 583.25 127.813 592 128C593.062 128 618.062 129.063 644.5 155.5C670.938 181.938 672 207.125 672 208C672 216.813 679.125 224 688 224C696.875 224 704 216.813 704 208C704 206.438 703.75 168.75 667.5 132.5C631.25 96.25 593.562 96 592 96ZM459.5 96.5C442.312 96.4375 424.625 102.438 411 115L19 508.5C-6.49999 534 -6.6875 575.75 19 603.5L198.5 782.5C210.812 794.812 227.188 801.5 245 801.5C262.562 801.5 279.5 794.938 293 782.5L685.5 389.5C709.938 360.938 709.938 319.438 685 294.5L505.5 115C493.25 102.75 476.688 96.5625 459.5 96.5ZM448 240C509.875 240 560 290.125 560 352C560 413.875 509.875 464 448 464C386.125 464 336 413.875 336 352C336 290.125 386.125 240 448 240ZM448 320C430.312 320 416 334.312 416 352C416 369.688 430.312 384 448 384C465.688 384 480 369.688 480 352C480 334.312 465.688 320 448 320ZM240 432C257.688 432 272 446.312 272 464C272 481.688 257.688 496 240 496C222.312 496 208 481.688 208 464C208 446.312 222.312 432 240 432ZM160 512C177.688 512 192 526.312 192 544C192 561.688 177.688 576 160 576C142.312 576 128 561.688 128 544C128 526.312 142.312 512 160 512ZM336 528C353.688 528 368 542.312 368 560C368 577.688 353.688 592 336 592C318.312 592 304 577.688 304 560C304 542.312 318.312 528 336 528ZM256 608C273.688 608 288 622.312 288 640C288 657.688 273.688 672 256 672C238.312 672 224 657.688 224 640C224 622.312 238.312 608 256 608Z" fill="#4DA67B"/>
</g>
<defs>
<clipPath id="clip0_3_2">
<rect width="800" height="800" fill="white"/>
</clipPath>
</defs>
</svg>
